<?xml version="1.0" encoding="UTF-8"?>
<svg xmlns="http://www.w3.org/2000/svg" version="1.1" viewBox="0 0 664 822.9">
  <defs>
    <style>
      .cls-1 {
        fill: #386641;
      }
    </style>
  </defs>
  <!-- Generator: Adobe Illustrator 28.7.0, SVG Export Plug-In . SVG Version: 1.2.0 Build 136)  -->
  <g>
    <g id="Layer_2">
      <path class="cls-1" d="M648.7,184.5c-12.6-39.5-33.1-76.4-59.5-108.3-13.5-16.4-28.7-31.5-45.2-45-7.7-6.3-36.2-21.3-38.7-31.2,20.5,80.5-52.4,154.7-52.4,154.7-305.8,323-90.7,467.5-90.7,467.5-42.3-256.2,169.3-445.2,169.3-445.2-47.8,51.1-84.3,111.9-108.2,177.6-25.3,69.5-36.5,143.3-35.9,217.2.5,53.5,4.9,113.9,17.2,170.2-25.5-20.7-55-38.4-82-52.4-37.6-19.5-78.2-32.8-120.3-37.9-39.8-4.8-80.3-1.9-118.8,9.3,0,0,151.4-59.2,271.4,28.7,0,0-18.2-147.4-262.5-74.7,0,0-56.8,18.1-92.7-13.2,4.4,3.8,4.7,22.3,5.9,27.9,2.6,11.9,6.4,23.5,11.3,34.7,9.5,21.8,23.1,41.8,40,58.4,34,33.6,82,54,130,52.9,35.2-.8,65.1-20.1,97.8-30.5,21.9-7,45.8-9.5,68.6-5.7,26.9,4.5,41.1,19.2,59.3,37.9.2.2.5.3,1,.4,4.6,15.7,10,30.8,16.2,45.1,0,0,24.7-37,23.1-41.7-14.7-43.1-26.5-76.9-12.2-122.2,12.1-38.4,34.9-73.7,63-102.3,41.9-42.7,95.6-74,124.6-128.2,39.6-73.9,45.6-164.6,20.1-244.1h0Z"/>
    </g>
  </g>
</svg>